<?xml version="1.0" encoding="utf-8"?>
<!-- Generator: Adobe Illustrator 20.1.0, SVG Export Plug-In . SVG Version: 6.00 Build 0)  -->
<svg version="1.1" id="Layer_1" xmlns="http://www.w3.org/2000/svg" xmlns:xlink="http://www.w3.org/1999/xlink" x="0px" y="0px"
	 viewBox="0 0 611.7 388.2" style="enable-background:new 0 0 611.7 388.2;" xml:space="preserve">
<style type="text/css">
	.st0{fill:#FFFFFF;}
</style>
<g>
	<g>
		<polygon points="611.7,194.5 544.4,301.6 543.1,301.8 53.2,388.2 0,86.3 489.3,0 590.2,72.8 		"/>
	</g>
</g>
<path class="st0" d="M514.3,128.9c-1.2,0-2.5,0.1-3.7,0.3c-5.5,1-10.4,4.1-13.6,8.7c-3.2,4.6-4.5,10.2-3.5,15.7
	c1.8,10.1,10.5,17.4,20.7,17.4c1.2,0,2.5-0.1,3.7-0.3c5.5-1,10.4-4.1,13.6-8.7c3.2-4.6,4.5-10.2,3.5-15.7
	C533.2,136.2,524.5,128.9,514.3,128.9"/>
<path class="st0" d="M321,211c-1.6-1.6-3.9-2.1-7.4-1.5c-0.7,0.1-1.4,0.3-2.1,0.5c-0.2,0-0.3,0.1-0.5,0.1l3.8,21.7l2.3-0.4
	c3.8-0.7,6.1-2.1,7.1-4.3c0.9-2.1,0.6-4.7,0.1-7.3C323.6,215.3,322.6,212.6,321,211"/>
<path class="st0" d="M587.5,74.5L488.6,3.2L3.5,88.7l52.2,296l486.9-85.9l66-105L587.5,74.5z M533.2,285l-0.7,0.1L68.1,367l-0.3-1.7
	L21.2,101.1l1.7-0.3l462.1-81.5l88.6,63.9l19,107.5l-0.4,0.6L533.2,285z"/>
<path class="st0" d="M484.1,22.9l-459,80.9l45.7,259.3L531.2,282l57.8-91.9L570.4,85.2L484.1,22.9z M353.4,110.3
	c2.5-0.4,5.1-0.9,7.6-1.5c2.5-0.5,5.1-1,7.6-1.5c4.9-0.9,14.4-1.8,22.8,1.4c8.6,3.3,13.9,10.1,15.6,20.2c1.7,9.9-0.8,18.1-7.7,24.3
	c-6.8,6.2-15.8,8.3-19.3,8.9c-2.8,0.5-5.7,0.9-8.5,1.4c-2.8,0.4-5.7,0.9-8.5,1.4l-7.6,1.3l-0.4-2.5l6.9-1.2l-8.8-49.6l-6.9,1.2
	l-0.4-2.5L353.4,110.3z M268,125.4l2.5,14.2l-2.2,0.4l-0.3-0.5c-3.6-6.9-9-10-15.4-8.9l-11.1,2l3.8,21.6l3.5-0.6
	c6.9-1.2,8.5-5.8,8.7-12.4l0-0.6l2.3-0.4l4.4,24.7l-2.3,0.4l-0.2-0.5c-2.2-5.2-5.2-9.9-11.6-8.8l-4.3,0.8l4.5,25.5l11.5-2
	c8-1.4,13-7.8,13.5-17.6l0-0.6l2.3-0.4l3.1,17.8l-49.2,8.7l-0.4-2.5l6.9-1.2l-8.8-49.6l-6.9,1.2l-0.4-2.5L268,125.4z M146.2,162.4
	l-0.2-0.5c-4.7-9.7-9-10.9-15.8-9.7l-2,0.3l8.8,49.6l6.9-1.2l0.4,2.5l-26,4.6l-0.4-2.5l6.9-1.2l-8.8-49.6l-2,0.3
	c-6.7,1.2-10.4,3.8-11.5,14.5l-0.1,0.6l-2.2,0.4l-2.7-15.1l48.3-8.5l2.7,15.1L146.2,162.4z M159.3,147.1l-0.4-2.5l12-2.1
	c2.1-0.4,4.1-0.8,6.2-1.2c2.1-0.4,4.1-0.8,6.2-1.2c9.2-1.6,19.7,0.2,21.4,10.1c1.2,7-3.9,11.6-9.9,14c8.1,0.1,13.5,1.3,16.1,11.2
	l0.6,2.2c2.8,10.7,3.1,11.5,5.6,11c1.5-0.3,2.3-1.4,3-2.5l0.7-1l2.1,1.3l-0.6,0.9c-1.6,2.3-2.9,4.1-8.4,5.1
	c-11.7,2.1-13.6-6.5-14.8-11.7c-1.8-8.1-3.4-15.2-12-13.7l-4.2,0.7l4.5,25.5l6.9-1.2l0.4,2.5l-26,4.6l-0.4-2.5l6.9-1.2l-8.8-49.6
	L159.3,147.1z M222.2,277.9l-2.7,0.5l-0.2-0.6c-0.4-0.9-1.4-0.9-1.9-0.8c-1.8,0.3-3.3,1.4-5.1,2.6c-2.5,1.8-5.7,4-11.2,5
	c-1.6,0.3-3.3,0.4-4.9,0.4c-13.7,0-26.3-10-28.7-23.7c-3-16.9,10.1-31.3,23.6-33.7c3.8-0.7,7.3-0.2,10.2,0.1
	c1.7,0.2,3.2,0.4,4.2,0.2c1-0.2,1.2-0.4,1.4-1.4l0.1-0.5l2.5-0.4l2.9,16.7l-2.4,0.4l-0.2-0.5c-4.4-9.6-10.3-13.6-18.1-12.1
	c-4.4,0.8-7.6,2.5-9.5,5.4c-4.1,5.9-2.4,15.5-0.9,23.9l0.3,1.8c3,17.2,8.3,22.8,19.3,20.9c4-0.7,6.2-2.5,7.1-5.6
	c0.9-3.2,0.4-7.3-0.3-11.4l-0.4-2.1l-7.7,1.4l-0.4-2.5l24.5-4.3l0.4,2.5l-4.9,0.9L222.2,277.9z M282.2,250.7
	c0.8,4.7,3.3,19-15.3,22.3c-3,0.5-5.6,0.8-7.9,0.8c-13.7,0-17.1-8.2-18.4-15.8l-6-34.2l-7,1.2l-0.4-2.5l26.1-4.6l0.4,2.5l-6.9,1.2
	l5.8,32.8c1.6,9.1,4,17.8,14.5,15.9c15.3-2.7,13.2-14.6,12.4-19.1l-6.1-34.4l-6.8,1.2l-0.4-2.5l16.4-2.9l0.4,2.5l-6.9,1.2
	L282.2,250.7z M283.5,125.2l-0.4-2.5l18.7-3.3l29.9,30l-5.6-31.7l-6.9,1.2l-0.4-2.5l16.4-2.9l0.4,2.5l-6.9,1.2l9.2,52.1l-3.1,0.6
	l-40.9-40.8l7.8,44l6.9-1.2l0.4,2.5l-16.4,2.9l-0.4-2.5l6.9-1.2l-8.8-49.6L283.5,125.2z M354.6,253.9c-1.6,2.3-2.9,4.1-8.4,5.1
	c-11.7,2.1-13.6-6.5-14.8-11.7c-1.8-8.1-3.4-15.2-12-13.7l-4.2,0.7l4.5,25.5l6.9-1.2l0.4,2.5l-26,4.6l-0.4-2.5l6.9-1.2l-8.8-49.6
	l-6.9,1.2l-0.4-2.5l12-2.1c2.1-0.4,4.1-0.8,6.2-1.2c2.1-0.4,4.1-0.8,6.2-1.2c2.8-0.5,8.1-1.1,12.9,0.6c4.7,1.6,7.7,4.9,8.5,9.6
	c1.2,7-3.9,11.6-9.9,14c8.1,0.1,13.5,1.3,16,11.2l0.6,2.2c2.8,10.7,3.1,11.5,5.6,11c1.5-0.3,2.3-1.4,3-2.5l0.7-1l2.1,1.3
	L354.6,253.9z M409.2,228.3c0.8,4.7,3.3,19-15.3,22.3c-2.9,0.5-5.5,0.8-7.9,0.8c-5.1,0-9.1-1.2-12.1-3.5c-4.3-3.4-5.7-8.6-6.3-12.3
	l-6-34.2l-6.9,1.2l-0.4-2.5l26.1-4.6l0.4,2.5l-6.9,1.2l5.8,32.8c0.8,4.5,1.8,9,4,12.2c2.3,3.4,5.8,4.6,10.5,3.8
	c15.3-2.7,13.2-14.6,12.4-19.1l-6.1-34.4l-6.8,1.2l-0.4-2.5l16.4-2.9l0.4,2.5l-6.9,1.2L409.2,228.3z M425.8,153.9l-0.4-2.5l6.9-1.2
	l-8.8-49.6l-6.9,1.2l-0.4-2.5l26-4.6l0.4,2.5l-6.9,1.2l8.8,49.6l6.9-1.2l0.4,2.5L425.8,153.9z M534.3,164
	c-3.7,5.4-9.4,8.9-15.8,10.1c-1.4,0.2-2.9,0.4-4.3,0.4c-11.9,0-22-8.5-24.1-20.2c-2.3-13.3,6.6-26,19.8-28.3
	c1.4-0.2,2.9-0.4,4.3-0.4c11.9,0,22,8.5,24.1,20.2C539.5,152.1,538,158.6,534.3,164"/>
<path class="st0" d="M377.4,160.1c8.2-1.4,13.5-5.3,15.7-11.5c2-5.5,1.2-12,0.4-16.4c-2.9-16.3-7.8-25.2-24.2-22.3
	c-1.6,0.3-2.9,0.6-3.9,0.8l8.8,49.8C375.4,160.4,376.4,160.3,377.4,160.1"/>
<path class="st0" d="M184.6,164.9c8.3-1.5,8.2-6.1,7.2-11.6c-1.6-9-4.2-11.4-10.8-10.3c-0.7,0.1-1.3,0.3-2,0.5
	c-0.2,0-0.3,0.1-0.5,0.1l3.8,21.7L184.6,164.9z"/>
</svg>
